<svg id="SvgjsSvg1012" width="288" height="288" xmlns="http://www.w3.org/2000/svg" version="1.1" xmlns:xlink="http://www.w3.org/1999/xlink" xmlns:svgjs="http://svgjs.com/svgjs"><defs id="SvgjsDefs1013"></defs><g id="SvgjsG1014"><svg xmlns="http://www.w3.org/2000/svg" enable-background="new 0 0 100 100" viewBox="0 0 100 100" width="288" height="288"><path d="M90,9H74c-0.37,0-0.71,0.2-0.88,0.53s-0.15,0.72,0.05,1.03L76.8,16l-3.63,5.45c-0.2,0.31-0.22,0.7-0.05,1.03S73.63,23,74,23
	h15v8H68.9c-0.46-2.28-2.48-4-4.9-4s-4.43,1.72-4.9,4H22c-7.17,0-13,5.83-13,13c0,3.48,1.35,6.74,3.8,9.2
	c2.46,2.45,5.73,3.8,9.2,3.8h9.1c0.46,2.28,2.48,4,4.9,4s4.43-1.72,4.9-4H78c6.07,0,11,4.93,11,11c0,2.94-1.14,5.71-3.22,7.78
	C83.71,77.86,80.94,79,78,79h-9.1c-0.46-2.28-2.48-4-4.9-4s-4.43,1.72-4.9,4H30.95C30.44,73.4,25.73,69,20,69c-6.07,0-11,4.93-11,11
	s4.93,11,11,11c5.73,0,10.44-4.4,10.95-10H59.1c0.46,2.28,2.48,4,4.9,4s4.43-1.72,4.9-4H78c3.48,0,6.75-1.35,9.2-3.8
	c2.45-2.45,3.8-5.72,3.8-9.2c0-7.17-5.83-13-13-13H40.9c-0.46-2.28-2.48-4-4.9-4s-4.43,1.72-4.9,4H22c-2.93,0-5.7-1.14-7.78-3.22
	C12.14,49.71,11,46.94,11,44c0-6.07,4.93-11,11-11h37.1c0.46,2.28,2.48,4,4.9,4s4.43-1.72,4.9-4H90c0.55,0,1-0.45,1-1V22V10
	C91,9.45,90.55,9,90,9z M20,89c-4.96,0-9-4.04-9-9s4.04-9,9-9s9,4.04,9,9S24.96,89,20,89z M64,83c-1.65,0-3-1.35-3-3s1.35-3,3-3
	s3,1.35,3,3S65.65,83,64,83z M36,53c1.65,0,3,1.35,3,3s-1.35,3-3,3s-3-1.35-3-3S34.35,53,36,53z M75.87,21l2.96-4.45
	c0.22-0.34,0.22-0.77,0-1.11L75.87,11H89v10H75.87z M64,35c-1.65,0-3-1.35-3-3s1.35-3,3-3s3,1.35,3,3S65.65,35,64,35z" fill="#2b5f9f" class="svgShape color000000-0 selectable"></path></svg></g></svg>