<svg xmlns="http://www.w3.org/2000/svg" enable-background="new 0 0 500 500" viewBox="0 0 500 500" id="Education">
  <g fill="#167ffc" class="color000000 svgShape">
    <polygon fill="#53d86a" points="192.2 350.4 214.7 461.8 273.6 461.8 298.2 350.6" class="colore5e5e5 svgShape"></polygon>
  </g>
  <g fill="#167ffc" class="color000000 svgShape">
    <path fill="#f4d2ae" d="M319.6,179c1.6-8.3,6.5-15.7,13.7-20.1c5.6-3.5,11.4-4.9,12.1,3.8c1.2,17.3-11.7,68.4-23.2,57.4
		C314.4,212.7,317,191.9,319.6,179z" class="colorf4aeae svgShape"></path>
  </g>
  <g fill="#167ffc" class="color000000 svgShape">
    <path fill="#f4d2ae" d="M166.8,179c-1.6-8.3-6.5-15.7-13.7-20.1c-5.6-3.5-11.4-4.9-12.1,3.8c-1.2,17.3,11.7,68.4,23.2,57.4
		C172,212.7,169.4,191.9,166.8,179z" class="colorf4aeae svgShape"></path>
  </g>
  <g fill="#167ffc" class="color000000 svgShape">
    <path fill="#585999" d="M161.7,164.1c0,0-4.5,17.6-2.5,38.3c2,20.7,18.8,61.2,18.8,61.2s-12.4-30.6,5.2-32.6s30.4-10.1,30.4-10.1
		l-4.8,15.5l21.8-13.6l-1.5,7.9l44.3-35.2c0,0,25.9,13.4,34.9,33.1c9,19.7,4.3,28.3,4.3,28.3s18.9-21.7,14.3-49.3
		c-4.6-27.7,2-43.4,2-43.4H161.7z" class="color995861 svgShape"></path>
  </g>
  <g fill="#167ffc" class="color000000 svgShape">
    <rect width="167.2" height="26.3" x="161.7" y="137.8" fill="#595bd4" class="color126972 svgShape"></rect>
  </g>
  <g fill="#167ffc" class="color000000 svgShape">
    <ellipse cx="244.8" cy="224.8" fill="#ffe9d2" rx="82.4" ry="89.4" class="colorffd2d2 svgShape"></ellipse>
  </g>
  <g fill="#167ffc" class="color000000 svgShape">
    <polygon fill="#ffe9d2" points="274.3 340.9 274.3 295.5 245.2 295.5 216.2 295.5 216.2 340.9 192.2 350.6 245.2 379.5 298.2 350.6" class="colorffd2d2 svgShape"></polygon>
  </g>
  <g fill="#167ffc" class="color000000 svgShape">
    <polygon fill="#e59d51" points="238 410.2 226.2 397.5 245.2 379.5 263.9 399.1 252.4 410.2 263.9 461.8 224.7 461.8" class="colore55151 svgShape"></polygon>
  </g>
  <g fill="#167ffc" class="color000000 svgShape">
    <polygon fill="#d38a3c" points="245.2 379.5 263.9 399.1 252.4 410.2 263.9 461.8 244.3 461.8" class="colord33c3c svgShape"></polygon>
  </g>
  <g fill="#167ffc" class="color000000 svgShape">
    <path fill="#595bd4" d="M194.1,351.7l25.8,110.1h-148V447c0-52.6,42.7-95.3,95.3-95.3H194.1z" class="color126972 svgShape"></path>
  </g>
  <g fill="#167ffc" class="color000000 svgShape">
    <path fill="#080947" d="M296.5,351.7l-25.8,110.1h148V447c0-52.6-42.7-95.3-95.3-95.3H296.5z" class="color084745 svgShape"></path>
  </g>
  <g fill="#167ffc" class="color000000 svgShape">
    <path fill="#ffe0c0" d="M244.3,290.5c-41.8,0-76.4-33.8-81.7-77.5c-0.5,3.9-0.7,7.8-0.7,11.9c0,49.4,36.9,89.4,82.4,89.4
		c45.5,0,82.4-40,82.4-89.4c0-4-0.2-8-0.7-11.9C320.7,256.7,286.1,290.5,244.3,290.5z" class="colorffc0c0 svgShape"></path>
  </g>
  <g fill="#167ffc" class="color000000 svgShape">
    <polyline fill="#595bd4" points="248.2 137.8 162.2 137.8 127.8 128.8 244.5 61.8 248.1 61.8 363.8 128.8 329.3 137.8 243.4 137.8" class="color126972 svgShape"></polyline>
  </g>
  <g fill="#167ffc" class="color000000 svgShape">
    <polygon fill="#121366" points="245.8 137.8 162.2 137.8 127.8 128.8 244.5 61.8 245.8 61.8" class="color126266 svgShape"></polygon>
  </g>
  <g fill="#167ffc" class="color000000 svgShape">
    <polygon fill="#090a51" points="98.2 109.3 127.8 128.8 244.5 61.8 248.1 61.8 363.8 128.8 392.9 105.6 245.5 25.1" class="color095151 svgShape"></polygon>
  </g>
  <g fill="#167ffc" class="color000000 svgShape">
    <path fill="#ff8300" d="M345,144.3h-10V72.7c0-11.9-9.6-21.5-21.5-21.5h-36.6v-10h36.6c17.4,0,31.5,14.1,31.5,31.5V144.3z" class="colorffff00 svgShape"></path>
  </g>
  <g fill="#167ffc" class="color000000 svgShape">
    <polygon fill="#ff8300" points="342 154.6 360.2 191.2 342 191.2 338.2 191.2 319.9 191.2 338.2 154.6" class="colorffff00 svgShape"></polygon>
  </g>
  <g fill="#167ffc" class="color000000 svgShape">
    <circle cx="339.4" cy="154.6" r="17.6" fill="#fe9526" class="colorffda00 svgShape"></circle>
  </g>
</svg>
