<svg id="SvgjsSvg1001" width="288" height="288" xmlns="http://www.w3.org/2000/svg" version="1.1" xmlns:xlink="http://www.w3.org/1999/xlink" xmlns:svgjs="http://svgjs.com/svgjs"><defs id="SvgjsDefs1002"></defs><g id="SvgjsG1008"><svg xmlns="http://www.w3.org/2000/svg" viewBox="0 0 512 512" width="288" height="288"><path d="M248.58,404.87A140.8,140.8,0,0,1,465.76,286.63c.15-10.43.23-21.56.23-33.57,0-61.75-2.1-100.29-6.25-140.21h.59A119.41,119.41,0,0,0,382.68,13c-1.11-.42-2.22-.82-3.34-1.2v0a119.37,119.37,0,0,0-25.58-5.57l-.83-.09C319.72,2.73,314.39,0,244.36,0S163,2.73,129.82,6.19l-.83.09a119.16,119.16,0,0,0-26.81,6v-.45A119.48,119.48,0,0,0,21.8,112.61c-4.16,40-6.28,78.58-6.28,140.45s2.12,100.45,6.28,140.45A119.59,119.59,0,0,0,128.38,500.08l.83.09c33.21,3.46,38.53,6.19,108.56,6.19,23.2,0,40-.3,53.19-.83A140.36,140.36,0,0,1,248.58,404.87Zm-117-271.72H349.89a23.82,23.82,0,0,1,0,47.64H131.63a23.82,23.82,0,0,1,0-47.64Zm0,149.57a23.83,23.83,0,0,1,0-47.65H256.09a23.83,23.83,0,1,1,0,47.65Z" fill="#2ea2dd" class="svgShape color000000-0 selectable"></path><path d="M389.35,297.74A107.13,107.13,0,1,0,496.48,404.87,107.13,107.13,0,0,0,389.35,297.74Zm42.46,122.81H387.22a12.75,12.75,0,0,1-12.75-12.75V339.3a12.75,12.75,0,1,1,25.5,0v55.75h31.84a12.75,12.75,0,0,1,0,25.5Z" fill="#56a5d7" class="svgShape color000000-1 selectable"></path></svg></g></svg>