<svg xmlns="http://www.w3.org/2000/svg" width="96" height="96" fill="none" viewBox="0 0 96 96" id="Honesty">
  <path fill="url(#paint0_linear_561_9770)" fill-rule="evenodd" d="M8.58223 19.6389C5.61741 18.5647 2.49586 20.7941 2.55001 23.9471L3.04845 52.9697C3.07989 54.8006 4.21762 56.4298 5.92565 57.0899L9.90401 58.6274C11.9643 59.4236 14.2584 58.602 15.3707 56.7698L19.5038 59.6629L43.4812 79.429L43.6069 79.5326L43.745 79.6191L46.9689 81.6371L47.0263 81.6731L47.0857 81.7059C48.1547 82.2969 49.5242 82.8528 50.9952 82.9576C52.5387 83.0675 54.2553 82.6717 55.6412 81.2858C56.5054 80.4217 57.0728 79.3732 57.3435 78.2669C58.8813 78.5215 61.0116 78.4752 62.539 76.9479C63.4645 76.0224 64.0496 74.8854 64.2944 73.6925C65.7802 73.7869 67.5487 73.4722 68.8841 72.1367C70.1101 70.9108 70.542 69.3316 70.5389 67.895C71.7815 67.6678 72.9703 67.0738 73.9312 66.1129C75.5237 64.5204 76.1085 62.3018 75.6856 60.2494L80.6154 57.7845C81.8369 58.8757 83.6106 59.2564 85.2384 58.6274L89.2167 57.0899C90.9248 56.4298 92.0625 54.8006 92.0939 52.9697L92.5924 23.9471C92.6465 20.7941 89.525 18.5647 86.5602 19.6389L71.6849 25.0284C69.4128 25.8516 68.2207 28.3048 68.912 30.5681C65.9789 31.4102 62.7139 30.9593 59.7084 30.1156C55.2059 28.8517 50.6409 28.9255 46.3222 30.8213C46.1978 30.7469 46.071 30.6755 45.943 30.6073C45.0937 30.1548 44.0331 29.7567 42.8556 29.4979C40.5128 28.9831 37.4357 28.9663 34.4979 30.5101C33.2742 31.1531 31.4522 31.3748 29.4064 31.246C28.2329 31.1721 27.1031 30.9909 26.1583 30.7846C26.9969 28.4634 25.8023 25.8779 23.4575 25.0284L8.58223 19.6389ZM24.2294 35.4659L17.3712 52.0669L22.4517 55.6232L22.5323 55.6796L22.6083 55.7422L46.536 75.4673L49.5603 77.3604C50.2459 77.7322 50.8742 77.9363 51.3504 77.9702C51.7668 77.9999 51.9512 77.9047 52.1057 77.7503C52.6372 77.2187 52.6679 76.376 52.1977 75.8086L47.1812 72.0628C46.0748 71.2367 45.8477 69.6702 46.6737 68.5639C47.4998 67.4576 49.0664 67.2304 50.1727 68.0565L55.3692 71.9367L55.5137 72.0446L55.6412 72.1721C56.0106 72.5415 56.8957 73.0504 57.8862 73.2797C58.3548 73.3882 58.7167 73.4018 58.9442 73.3728C58.9977 73.366 59.0357 73.3581 59.0608 73.3516C59.5417 72.8127 59.5483 71.9997 59.0806 71.4532L49.9297 64.2706C48.8436 63.4181 48.6542 61.8466 49.5067 60.7605C50.3592 59.6744 51.9307 59.485 53.0168 60.3375L62.3148 67.6354L62.4328 67.7281L62.539 67.8342C62.8855 68.1807 63.5808 68.5511 64.3379 68.672C65.0439 68.7847 65.3124 68.6219 65.3467 68.6011C65.3513 68.5983 65.3517 68.5981 65.3486 68.6012C65.4205 68.5293 65.5959 68.2629 65.5234 67.6512C65.4551 67.0739 65.1893 66.5169 64.8716 66.1696L52.5648 55.6938C51.5134 54.7988 51.3866 53.221 52.2815 52.1696C53.1765 51.1182 54.7543 50.9914 55.8057 51.8864L68.2057 62.4415L68.2821 62.5065L68.353 62.5774C68.9171 63.1415 69.8316 63.1415 70.3956 62.5774C70.9571 62.0159 70.9597 61.1072 70.4034 60.5426L57.1217 47.568C55.9268 46.4007 54.1531 46.0538 52.6064 46.685L45.7776 49.4717C41.9726 51.0244 37.6078 49.482 35.6232 45.8833C33.4627 41.9656 34.8871 37.0382 38.8049 34.8777L40.062 34.1844C38.9871 34.1758 37.8674 34.3878 36.8238 34.9362C34.4011 36.2093 31.4863 36.3868 29.0924 36.2361C27.2843 36.1223 25.5696 35.8071 24.2294 35.4659ZM70.8095 35.2154C66.374 36.6606 61.7989 35.8957 58.357 34.9295C54.3678 33.8097 50.6224 34.0705 47.1726 35.973L44.8736 37.2408L41.2194 39.256C39.7198 40.083 39.1745 41.9691 40.0015 43.4687C40.7612 44.8462 42.4319 45.4367 43.8884 44.8423L50.7173 42.0556C54.1078 40.672 57.9962 41.4324 60.6157 43.9914L72.9408 56.0316L78.3017 53.3512L70.8095 35.2154ZM7.56174 24.5873L21.2629 29.5513L11.2506 53.7874L8.04193 52.5474L7.56174 24.5873ZM87.5807 24.5873L73.8795 29.5513L83.8918 53.7874L87.1005 52.5474L87.5807 24.5873ZM59.0962 73.3407C59.0996 73.3394 59.1012 73.3387 59.1011 73.3386C59.1011 73.3386 59.1006 73.3388 59.0997 73.3391C59.0989 73.3395 59.0977 73.34 59.0962 73.3407Z" clip-rule="evenodd"></path>
  <defs>
    <linearGradient id="paint0_linear_561_9770" x1="47.571" x2="47.571" y1="19.366" y2="82.975" gradientUnits="userSpaceOnUse">
      <stop stop-color="#167ffc" class="stopColor00a3ff svgShape"></stop>
      <stop offset="1" stop-color="#595bd4" class="stopColor4100ab svgShape"></stop>
    </linearGradient>
  </defs>
</svg>
