<svg id="SvgjsSvg1054" width="288" height="288" xmlns="http://www.w3.org/2000/svg" version="1.1" xmlns:xlink="http://www.w3.org/1999/xlink" xmlns:svgjs="http://svgjs.com/svgjs"><defs id="SvgjsDefs1055"></defs><g id="SvgjsG1056"><svg xmlns="http://www.w3.org/2000/svg" display="block" preserveAspectRatio="none" viewBox="0 0 2048 2048" width="288" height="288"><defs><linearGradient id="a" x1="1328.9" x2="1551.84" y1="1070.06" y2="1790.84" gradientUnits="userSpaceOnUse"><stop offset="0" stop-color="#3E99CA" class="svgShape stopColor3e99ca-2"></stop><stop offset="1" stop-color="#4579D9" class="svgShape stopColor4579d9-3"></stop></linearGradient></defs><path fill="url(#a)" d="M 1405.2 1045.15 C 1426.37 1043.78 1474.59 1064.95 1496.26 1072.41 L 1705.26 1145.78 C 1750.91 1161.82 1743.9 1161.75 1743.79 1209.29 L 1743.73 1387.08 C 1743.83 1519.66 1720.2 1613.31 1617.06 1710.94 C 1573.01 1752.63 1476.01 1823.03 1415.49 1834.96 C 1390.84 1835.61 1374 1827.18 1351.97 1816.81 C 1252.72 1770.09 1164.4 1694.23 1114.25 1595.99 C 1068.68 1506.73 1077.24 1423.69 1077.25 1327.36 L 1077.24 1216.23 C 1077.22 1198.74 1076.44 1178.02 1077.25 1160.99 C 1108.36 1137.16 1310.37 1078.52 1357.6 1061.41 C 1373.26 1055.73 1389.18 1049.67 1405.2 1045.15 z M 1121.93 1190.45 C 1121.18 1205.93 1121.88 1225.59 1121.9 1241.45 L 1121.91 1416.76 C 1121.81 1543.88 1166.75 1632.81 1269.86 1712.91 C 1299.09 1735.61 1379.44 1790.35 1415.49 1789 C 1527.26 1739.05 1629.39 1662.97 1677.58 1546.09 C 1704.53 1480.73 1700.4 1429.6 1700.39 1360.99 L 1700.36 1190.45 C 1669.44 1180.6 1639.17 1168.85 1608.45 1158.25 L 1430.33 1097.21 C 1429.15 1096.81 1409.07 1089.68 1410.19 1089.9 C 1389.16 1098.55 1365.51 1106.08 1343.83 1113.47 L 1219.24 1155.82 C 1187.63 1166.43 1152.51 1177.52 1121.93 1190.45 z" class="svgShape colorgradient-6 selectable"></path><path fill="#4285D2" d="M 1537.88 1289.68 C 1565.82 1284.05 1614.84 1337.17 1623.11 1355.08 C 1636.39 1383.87 1608.71 1403.86 1591.42 1422 C 1566.78 1447.84 1541.68 1473.2 1516.63 1498.62 L 1443.67 1571.8 C 1417.8 1597.63 1395.24 1631.4 1352.62 1615.23 C 1337.48 1609.48 1294.54 1568.02 1288.68 1555.19 C 1261.01 1532.77 1203.15 1483.91 1202.9 1446.18 C 1202.7 1415.29 1265.02 1347.82 1302.75 1372 C 1316.29 1380.69 1362.63 1427.64 1373.76 1440.16 C 1386.84 1429.6 1413.29 1402.17 1425.42 1389.69 L 1485.02 1329.49 C 1499.82 1314.64 1515.44 1291.09 1537.88 1289.68 z M 1373.76 1503.46 C 1350.31 1476.68 1309.8 1436.57 1283.22 1411.95 C 1274.65 1416.32 1242.27 1443.2 1249.01 1453.44 C 1257.19 1465.85 1271.44 1478.28 1283.22 1487.2 C 1294.38 1505.89 1346.48 1552.44 1363.86 1571.01 C 1375.65 1583.61 1398.96 1554.73 1407.32 1546.29 L 1533.7 1419.88 C 1547.84 1405.58 1567.32 1386.55 1580.36 1371.7 C 1576.24 1366.79 1549.06 1338.47 1544.29 1335 C 1499.74 1368.15 1449.76 1427.97 1407.77 1467.78 C 1395.95 1478.98 1385.39 1492.51 1373.76 1503.46 z" class="svgShape color4285d2-7 selectable"></path></svg></g></svg>