<svg xmlns="http://www.w3.org/2000/svg" viewBox="0 0 64 64" id="performance">
  <path fill="#657280" d="M61 38V26h-2.173a1.982 1.982 0 0 1-1.906-1.408 25.864 25.864 0 0 0-2.059-4.976 1.982 1.982 0 0 1 .351-2.344l1.536-1.536-8.485-8.485-1.536 1.536c-.62.62-1.574.769-2.344.351a25.837 25.837 0 0 0-4.976-2.059A1.983 1.983 0 0 1 38 5.173V3H26v2.173c0 .876-.568 1.657-1.408 1.906a25.864 25.864 0 0 0-4.976 2.059 1.982 1.982 0 0 1-2.344-.351l-1.536-1.536-8.485 8.485 1.536 1.536c.62.62.769 1.574.351 2.344a25.837 25.837 0 0 0-2.059 4.976A1.982 1.982 0 0 1 5.173 26H3v12h2.173c.876 0 1.657.568 1.906 1.408a25.864 25.864 0 0 0 2.059 4.976 1.982 1.982 0 0 1-.351 2.344l-1.536 1.536 8.485 8.485 1.536-1.536a1.982 1.982 0 0 1 2.344-.351 25.837 25.837 0 0 0 4.976 2.059A1.982 1.982 0 0 1 26 58.827V61h12v-2.173c0-.876.568-1.657 1.408-1.906a25.864 25.864 0 0 0 4.976-2.059 1.982 1.982 0 0 1 2.344.351l1.536 1.536 8.485-8.485-1.536-1.536a1.982 1.982 0 0 1-.351-2.344 25.837 25.837 0 0 0 2.059-4.976A1.982 1.982 0 0 1 58.827 38H61z"></path>
  <circle cx="32" cy="32" r="21" fill="#e6e6e6"></circle>
  <path fill="#ffe38f" d="M39 42v10l6-3v-7zM29 45h6v8h-6zM20 49l5 2v-5h-5z"></path>
  <path fill="#657280" d="m44 33 3 5 1.985-4.866z"></path>
  <circle cx="32" cy="28" r="3" fill="#99aecc"></circle>
  <path fill="#99aecc" d="M39 22v1a12 12 0 0 1-2.102 6.785c-.189.276-1.475 1.004-1.475 1.004a2.003 2.003 0 0 1-.895.211h-5.056c-.31 0-.617-.072-.894-.211 0 0-1.286-.728-1.475-1.004A11.993 11.993 0 0 1 25 23v-1h-3v2.89c0 2.039.52 4.045 1.51 5.828L27 36v5l10-2v-3l3.49-5.282A12.004 12.004 0 0 0 42 24.89V22h-3z"></path>
  <path fill="#ff8088" d="m32 14.196 1.236 2.504 2.764.402-2 1.949.472 2.753L32 20.505l-2.472 1.299.472-2.753-2-1.949 2.764-.402z"></path>
  <path d="M61 25h-2.173a.986.986 0 0 1-.947-.692 26.86 26.86 0 0 0-2.139-5.168.986.986 0 0 1 .179-1.16l1.536-1.536a.999.999 0 0 0 0-1.414l-8.485-8.485a1.03 1.03 0 0 0-1.414 0L46.022 8.08a.992.992 0 0 1-1.161.18 26.937 26.937 0 0 0-5.168-2.14.988.988 0 0 1-.693-.947V3a1 1 0 0 0-1-1H26a1 1 0 0 0-1 1v2.173a.986.986 0 0 1-.692.946 26.874 26.874 0 0 0-5.168 2.14.988.988 0 0 1-1.16-.179l-1.536-1.536a1 1 0 0 0-1.414 0l-8.485 8.485a.999.999 0 0 0 0 1.414l1.536 1.536a.987.987 0 0 1 .179 1.16 26.772 26.772 0 0 0-2.14 5.169.988.988 0 0 1-.947.692H3a1 1 0 0 0-1 1v12a1 1 0 0 0 1 1h2.173c.437 0 .826.285.947.692a26.896 26.896 0 0 0 2.139 5.168.986.986 0 0 1-.179 1.16l-1.536 1.536a.999.999 0 0 0 0 1.414l8.485 8.485a1.03 1.03 0 0 0 1.414 0l1.536-1.536a.988.988 0 0 1 1.161-.179 26.937 26.937 0 0 0 5.168 2.14.989.989 0 0 1 .692.947V61a1 1 0 0 0 1 1h12a1 1 0 0 0 1-1v-2.173c0-.437.285-.825.692-.946a26.874 26.874 0 0 0 5.168-2.14.987.987 0 0 1 1.16.179l1.536 1.536a1 1 0 0 0 1.414 0l8.485-8.485a.999.999 0 0 0 0-1.414l-1.536-1.536a.987.987 0 0 1-.179-1.16 26.896 26.896 0 0 0 2.139-5.168.99.99 0 0 1 .948-.693H61a1 1 0 0 0 1-1V26a1 1 0 0 0-1-1zm-1 12h-1.173a2.998 2.998 0 0 0-2.865 2.124 24.84 24.84 0 0 1-1.979 4.783 2.996 2.996 0 0 0 .522 3.527l.829.829-7.071 7.071-.829-.829a2.995 2.995 0 0 0-3.528-.522 24.93 24.93 0 0 1-4.783 1.979A3.002 3.002 0 0 0 37 58.827V60H27v-1.173a3 3 0 0 0-2.124-2.864 24.904 24.904 0 0 1-4.783-1.979 2.997 2.997 0 0 0-3.528.522l-.829.829-7.071-7.071.829-.829c.93-.93 1.145-2.38.522-3.527a24.866 24.866 0 0 1-1.979-4.783A2.996 2.996 0 0 0 5.173 37H4V27h1.173a2.998 2.998 0 0 0 2.865-2.124 24.893 24.893 0 0 1 1.979-4.783 2.996 2.996 0 0 0-.522-3.527l-.829-.829 7.071-7.071.829.83c.93.928 2.381 1.146 3.527.521a24.93 24.93 0 0 1 4.783-1.979A3.001 3.001 0 0 0 27 5.173V4h10v1.173a3 3 0 0 0 2.124 2.864 24.904 24.904 0 0 1 4.783 1.979c1.146.623 2.597.406 3.528-.522l.829-.829 7.071 7.071-.829.829a2.996 2.996 0 0 0-.522 3.527 24.866 24.866 0 0 1 1.979 4.783 2.997 2.997 0 0 0 2.864 2.124H60V37z"></path>
  <path d="M32 10c-12.131 0-22 9.869-22 22s9.869 22 22 22a21.9 21.9 0 0 0 13.948-5H46v-.042c4.883-4.039 8-10.141 8-16.958 0-12.131-9.869-22-22-22zm-8 40.318a19.886 19.886 0 0 1-3-1.633V47h3v3.318zm10 1.581c-.658.065-1.325.101-2 .101s-1.342-.036-2-.101V46h4v5.899zm10-3.937a20.015 20.015 0 0 1-4 2.357V43h4v4.962zm2-1.703V42a1 1 0 0 0-1-1h-6a1 1 0 0 0-1 1v9.078c-.653.206-1.32.381-2 .519V45a1 1 0 0 0-1-1h-6a1 1 0 0 0-1 1v6.597c-.755-.154-1.49-.36-2.212-.597H26v-5a1 1 0 0 0-1-1h-5a1 1 0 0 0-1 1v1.168c-4.277-3.671-7-9.103-7-15.168 0-11.028 8.972-20 20-20s20 8.972 20 20c0 5.58-2.302 10.628-6 14.259z"></path>
  <path d="M43.137 32.496a.998.998 0 0 0 .006 1.019l.967 1.611c-.75.3-1.557.608-2.45.934-1.208.438-2.43.839-3.659 1.22v-.98l3.364-5.096A13.041 13.041 0 0 0 43 24.891V22a1 1 0 0 0-1-1h-3a1 1 0 0 0-1 1v1c0 2.229-.667 4.38-1.865 6.143a3.78 3.78 0 0 1-.414.296c.174-.448.279-.931.279-1.439 0-2.206-1.794-4-4-4s-4 1.794-4 4c0 .511.105.996.281 1.445a13.73 13.73 0 0 1-.353-.226A10.953 10.953 0 0 1 26 23v-1a1 1 0 0 0-1-1h-3a1 1 0 0 0-1 1v2.891c0 2.204.566 4.388 1.676 6.378L26 36.301v3.763c-2.981.466-6 .783-9.05.937l.101 1.998c8.74-.439 17.249-2.142 25.293-5.06a86.895 86.895 0 0 0 2.808-1.078l.992 1.653a.995.995 0 0 0 .933.483 1 1 0 0 0 .849-.619l1.985-4.866a1.003 1.003 0 0 0-.899-1.378L44.027 32c-.372.009-.707.181-.89.496zM32 26c1.103 0 2 .897 2 2s-.897 2-2 2-2-.897-2-2 .897-2 2-2zm4 10v1.879a84.498 84.498 0 0 1-8 1.841V36a.999.999 0 0 0-.166-.551l-3.45-5.218A11.018 11.018 0 0 1 23 24.891V23h1c0 2.634.788 5.176 2.278 7.352.087.128.32.466 1.853 1.332.414.207.878.316 1.341.316h5.056c.463 0 .927-.109 1.387-.341 1.487-.842 1.719-1.18 1.808-1.309A12.956 12.956 0 0 0 40 23h1v1.891c0 1.865-.479 3.712-1.345 5.276l-3.49 5.282A1.006 1.006 0 0 0 36 36zm11.513-1.905-.684 1.677-1.034-1.723 1.718.046z"></path>
  <path d="m28.925 19.4-.383 2.235a1 1 0 0 0 1.451 1.054L32 21.635l2.007 1.055a.997.997 0 0 0 1.053-.076 1 1 0 0 0 .398-.978l-.383-2.236 1.624-1.583a1 1 0 0 0-.555-1.705l-2.244-.326-1.003-2.033c-.337-.684-1.457-.684-1.794 0L30.1 15.786l-2.244.326a1 1 0 0 0-.555 1.705l1.624 1.583zm1.983-1.711a1 1 0 0 0 .753-.547l.339-.687.339.688a1 1 0 0 0 .753.547l.759.11-.549.536a1.003 1.003 0 0 0-.288.885l.13.756-.679-.356a.99.99 0 0 0-.93-.001l-.679.356.13-.756a1.001 1.001 0 0 0-.288-.885l-.549-.535.759-.111z"></path>
</svg>
