<svg xmlns="http://www.w3.org/2000/svg" viewBox="0 0 48 48" id="training">
  <rect width="36" height="23" x="6" y="5" fill="#0ca0f2" rx="2" ry="2"></rect>
  <path fill="#0588e2" d="M40,5h-1v18c0,1.105-.895,2-2,2H6v1c0,1.105.895,2,2,2h32c1.105,0,2-.895,2-2V7c0-1.105-.895-2-2-2Z"></path>
  <circle cx="16" cy="13" r="4" fill="#eff3f9"></circle>
  <path fill="#cfe0f3" d="M16.185,9.019c.793.54,1.315,1.449,1.315,2.481,0,1.657-1.343,3-3,3-1.032,0-1.942-.522-2.481-1.315.099,2.121,1.836,3.815,3.981,3.815,2.209,0,4-1.791,4-4,0-2.146-1.694-3.883-3.815-3.981Z"></path>
  <path fill="#eff3f9" d="M32.33,19.8c0,.58-.26,1.17-.75,1.56l-5.14,4.14c-.34.27-.74.41-1.14.44-.47.02-.95-.12-1.34-.42l-1.96-1.53v4.01h-13v-5c0-2.761,2.239-5,5-5h5.092c1.114,0,2.195.372,3.073,1.056l2.995,2.334,3.817-3.067c.801-.644,1.99-.676,2.734.033.424.404.619.924.619,1.444Z"></path>
  <rect width="13" height="3" x="9" y="25" fill="#cfe0f3"></rect>
  <circle cx="38" cy="30" r="4" fill="#eff3f9"></circle>
  <path fill="#cfe0f3" d="M38.185,26.019c.793.54,1.315,1.449,1.315,2.481,0,1.657-1.343,3-3,3-1.032,0-1.942-.522-2.481-1.315.099,2.121,1.836,3.815,3.981,3.815,2.209,0,4-1.791,4-4,0-2.146-1.694-3.883-3.815-3.981Z"></path>
  <path fill="#eff3f9" d="M39,35h-2c-2.761,0-5,2.239-5,5v1c0,1.105.895,2,2,2h8c1.105,0,2-.895,2-2v-1c0-2.761-2.239-5-5-5Z"></path>
  <path fill="#cfe0f3" d="M40.52,35.261c.306.685.48,1.441.48,2.239,0,1.381-1.119,2.5-2.5,2.5h-6.5v1c0,1.105.895,2,2,2h8c1.105,0,2-.895,2-2v-1c0-2.228-1.467-4.093-3.48-4.739Z"></path>
  <circle cx="24" cy="30" r="4" fill="#eff3f9"></circle>
  <path fill="#cfe0f3" d="M24.185,26.019c.793.54,1.315,1.449,1.315,2.481,0,1.657-1.343,3-3,3-1.032,0-1.942-.522-2.481-1.315.099,2.121,1.836,3.815,3.981,3.815,2.209,0,4-1.791,4-4,0-2.146-1.694-3.883-3.815-3.981Z"></path>
  <path fill="#eff3f9" d="M25,35h-2c-2.761,0-5,2.239-5,5v1c0,1.105.895,2,2,2h8c1.105,0,2-.895,2-2v-1c0-2.761-2.239-5-5-5Z"></path>
  <path fill="#cfe0f3" d="M26.52,35.261c.306.685.48,1.441.48,2.239,0,1.381-1.119,2.5-2.5,2.5h-6.5v1c0,1.105.895,2,2,2h8c1.105,0,2-.895,2-2v-1c0-2.228-1.467-4.093-3.48-4.739Z"></path>
  <circle cx="10" cy="30" r="4" fill="#eff3f9"></circle>
  <path fill="#cfe0f3" d="M10.185,26.019c.793.54,1.315,1.449,1.315,2.481,0,1.657-1.343,3-3,3-1.032,0-1.942-.522-2.481-1.315.099,2.121,1.836,3.815,3.981,3.815,2.209,0,4-1.791,4-4,0-2.146-1.694-3.883-3.815-3.981Z"></path>
  <path fill="#eff3f9" d="M11,35h-2c-2.761,0-5,2.239-5,5v1c0,1.105.895,2,2,2h8c1.105,0,2-.895,2-2v-1c0-2.761-2.239-5-5-5Z"></path>
  <path fill="#cfe0f3" d="M12.52,35.261c.306.685.48,1.441.48,2.239,0,1.381-1.119,2.5-2.5,2.5h-6.5v1c0,1.105.895,2,2,2h8c1.105,0,2-.895,2-2v-1c0-2.228-1.467-4.093-3.48-4.739Z"></path>
  <path fill="#08105e" d="M40.633,34.232c1.415-.884,2.367-2.444,2.367-4.232,0-.823-.219-1.589-.573-2.274.357-.501.573-1.098.573-1.726V7c0-1.654-1.346-3-3-3H8c-1.654,0-3,1.346-3,3v19c0,.627.216,1.225.573,1.726-.354.685-.573,1.451-.573,2.274,0,1.788.951,3.348,2.367,4.232-2.516.714-4.367,3.026-4.367,5.768v1c0,1.654,1.346,3,3,3h8c1.654,0,3-1.346,3-3,0,1.654,1.346,3,3,3h8c1.654,0,3-1.346,3-3,0,1.654,1.346,3,3,3h8c1.654,0,3-1.346,3-3v-1c0-2.742-1.85-5.054-4.367-5.768ZM38,33c-1.654,0-3-1.346-3-3s1.346-3,3-3,3,1.346,3,3-1.346,3-3,3ZM7,7c0-.551.448-1,1-1h32c.552,0,1,.449,1,1v19c0,.008-.005.014-.005.021-.837-.632-1.867-1.021-2.995-1.021-1.627,0-3.061.793-3.974,2h-6.051c-.23-.304-.494-.575-.786-.819l5.014-4.039c.706-.561,1.128-1.437,1.128-2.343,0-.824-.33-1.593-.928-2.162-1.081-1.037-2.82-1.08-4.048-.098l-3.204,2.574-2.363-1.842c-1.047-.821-2.36-1.273-3.697-1.273h-.121c1.225-.912,2.031-2.359,2.031-4,0-2.757-2.243-5-5-5s-5,2.243-5,5c0,1.682.841,3.165,2.118,4.072-2.891.429-5.118,2.919-5.118,5.928v2.424c-.358.157-.686.364-.995.598,0-.008-.005-.014-.005-.021V7ZM24,33c-1.654,0-3-1.346-3-3s1.346-3,3-3,3,1.346,3,3-1.346,3-3,3ZM10,25v-2c0-2.206,1.794-4,4-4h5.09c.904,0,1.757.293,2.466.849l2.99,2.33c.366.286.88.282,1.24-.009l3.819-3.069c.438-.349,1.06-.358,1.415-.017.256.244.31.524.31.716,0,.301-.139.592-.377.781l-5.134,4.135c-.21.166-.438.215-.562.225-.249.004-.494-.065-.682-.209l-1.96-1.53c-.3-.235-.711-.277-1.054-.111-.344.168-.562.517-.562.899v2.035c-.369.279-.695.606-.974.974h-6.051c-.914-1.207-2.348-2-3.974-2ZM16,16c-1.654,0-3-1.346-3-3s1.346-3,3-3,3,1.346,3,3-1.346,3-3,3ZM10,27c1.654,0,3,1.346,3,3s-1.346,3-3,3-3-1.346-3-3,1.346-3,3-3ZM15,41c0,.551-.448,1-1,1H6c-.552,0-1-.449-1-1v-1c0-2.206,1.794-4,4-4h2c2.206,0,4,1.794,4,4v1ZM17,40c0-2.742-1.85-5.054-4.367-5.768,1.415-.884,2.367-2.444,2.367-4.232,0-.342-.035-.677-.101-1h4.202c-.066.323-.101.658-.101,1,0,1.788.951,3.348,2.367,4.232-2.516.714-4.367,3.026-4.367,5.768ZM29,41c0,.551-.448,1-1,1h-8c-.552,0-1-.449-1-1v-1c0-2.206,1.794-4,4-4h2c2.206,0,4,1.794,4,4v1ZM31,40c0-2.742-1.85-5.054-4.367-5.768,1.415-.884,2.367-2.444,2.367-4.232,0-.342-.035-.677-.101-1h4.202c-.066.323-.101.658-.101,1,0,1.788.951,3.348,2.367,4.232-2.516.714-4.367,3.026-4.367,5.768ZM43,41c0,.551-.448,1-1,1h-8c-.552,0-1-.449-1-1v-1c0-2.206,1.794-4,4-4h2c2.206,0,4,1.794,4,4v1Z"></path>
</svg>
